<?xml version="1.0" encoding="UTF-8"?>
<svg xmlns="http://www.w3.org/2000/svg" xmlns:xlink="http://www.w3.org/1999/xlink" width="700px" height="466px" viewBox="0 0 699 466" version="1.1">
<g id="surface1">
<path style=" stroke:none;fill-rule:nonzero;fill:rgb(99.607843%,99.607843%,99.607843%);fill-opacity:1;" d="M 158.203125 136.027344 C 158.84375 136.261719 158.84375 136.261719 159.496094 136.496094 C 164.488281 138.503906 168.546875 141.617188 171.828125 145.867188 C 172.050781 145.585938 172.269531 145.3125 172.503906 145.027344 C 172.804688 144.675781 173.09375 144.3125 173.402344 143.953125 C 173.691406 143.589844 173.980469 143.242188 174.28125 142.882812 C 174.546875 142.601562 174.820312 142.328125 175.097656 142.042969 C 175.464844 142.042969 175.820312 142.042969 176.191406 142.042969 C 176.191406 141.679688 176.191406 141.324219 176.191406 140.953125 C 180.597656 138.230469 184.65625 135.910156 189.816406 134.9375 C 190.566406 134.789062 190.566406 134.789062 191.335938 134.636719 C 202.015625 133.140625 213.265625 135.191406 222.238281 141.3125 C 222.507812 141.550781 222.777344 141.792969 223.058594 142.042969 C 223.058594 142.398438 223.058594 142.765625 223.058594 143.132812 C 223.378906 143.261719 223.695312 143.394531 224.035156 143.535156 C 225.460938 144.351562 226.164062 145.210938 227.140625 146.515625 C 227.453125 146.914062 227.769531 147.3125 228.082031 147.730469 C 230.238281 150.863281 231.640625 153.65625 232.4375 157.363281 C 232.539062 157.78125 232.628906 158.207031 232.722656 158.644531 C 233.792969 164.0625 233.71875 169.492188 233.683594 174.996094 C 233.683594 176.136719 233.683594 177.285156 233.691406 178.417969 C 233.691406 180.796875 233.683594 183.167969 233.667969 185.535156 C 233.65625 188.570312 233.65625 191.609375 233.664062 194.636719 C 233.667969 196.988281 233.664062 199.332031 233.65625 201.683594 C 233.65625 202.804688 233.65625 203.917969 233.65625 205.039062 C 233.65625 206.597656 233.644531 208.15625 233.636719 209.722656 C 233.640625 210.40625 233.640625 210.40625 233.640625 211.105469 C 233.613281 213.800781 233.253906 215.644531 231.777344 217.976562 C 229.417969 220.21875 227.453125 221.160156 224.214844 221.421875 C 221.207031 221.335938 218.988281 220.261719 216.617188 218.421875 C 214.222656 215.339844 214.179688 211.644531 214.234375 207.882812 C 214.238281 207.226562 214.238281 207.226562 214.238281 206.546875 C 214.242188 205.601562 214.242188 204.65625 214.261719 203.699219 C 214.277344 202.203125 214.28125 200.695312 214.28125 199.183594 C 214.296875 195.453125 214.324219 191.71875 214.351562 187.980469 C 214.375 184.820312 214.390625 181.652344 214.394531 178.496094 C 214.40625 177.011719 214.417969 175.542969 214.433594 174.066406 C 214.441406 173.152344 214.441406 172.234375 214.449219 171.328125 C 214.457031 170.714844 214.457031 170.714844 214.460938 170.097656 C 214.460938 164.988281 213.40625 160.675781 209.976562 156.789062 C 205.03125 152.574219 199.972656 151.964844 193.628906 152.417969 C 189.582031 153.140625 186.09375 155.160156 183.53125 158.394531 C 179.84375 164.265625 180.398438 171.804688 180.398438 178.484375 C 180.398438 179.988281 180.398438 181.484375 180.378906 182.976562 C 180.359375 187.234375 180.347656 191.488281 180.335938 195.742188 C 180.335938 198.355469 180.324219 200.972656 180.308594 203.585938 C 180.304688 204.574219 180.304688 205.570312 180.304688 206.566406 C 180.308594 207.949219 180.292969 209.332031 180.289062 210.714844 C 180.289062 211.316406 180.289062 211.316406 180.292969 211.9375 C 180.25 214.957031 179.496094 216.640625 177.824219 219.070312 C 175.34375 220.804688 172.636719 221.335938 169.648438 221.253906 C 166.589844 220.636719 164.570312 219.316406 162.566406 216.886719 C 161.863281 214.769531 161.933594 212.761719 161.925781 210.566406 C 161.917969 210.085938 161.917969 209.605469 161.910156 209.117188 C 161.90625 208.078125 161.90625 207.035156 161.894531 206 C 161.890625 204.351562 161.875 202.707031 161.863281 201.058594 C 161.824219 196.375 161.785156 191.695312 161.757812 187.011719 C 161.742188 184.152344 161.71875 181.28125 161.691406 178.417969 C 161.6875 177.332031 161.675781 176.242188 161.671875 175.148438 C 161.671875 173.625 161.65625 172.09375 161.644531 170.5625 C 161.644531 170.121094 161.644531 169.675781 161.644531 169.207031 C 161.582031 164.964844 160.90625 160.761719 158.203125 157.335938 C 154.308594 153.5625 150.253906 152.34375 144.921875 152.179688 C 141.171875 152.25 138.152344 153.011719 134.769531 154.601562 C 134.371094 154.792969 133.960938 154.972656 133.546875 155.164062 C 132.285156 155.867188 132.066406 156.550781 131.5 157.878906 C 131.230469 158.285156 130.964844 158.695312 130.6875 159.109375 C 128.773438 162.613281 128.617188 166.199219 128.636719 170.09375 C 128.625 170.832031 128.625 170.832031 128.625 171.585938 C 128.625 172.640625 128.621094 173.695312 128.621094 174.753906 C 128.621094 176.433594 128.621094 178.105469 128.605469 179.789062 C 128.582031 184.550781 128.574219 189.3125 128.5625 194.074219 C 128.5625 196.992188 128.550781 199.921875 128.535156 202.84375 C 128.527344 203.945312 128.527344 205.0625 128.527344 206.171875 C 128.535156 207.71875 128.519531 209.269531 128.511719 210.824219 C 128.511719 211.28125 128.519531 211.742188 128.519531 212.207031 C 128.484375 215.109375 127.960938 216.753906 126.050781 219.070312 C 123.71875 220.808594 121.238281 221.4375 118.355469 221.253906 C 115.71875 220.832031 113.992188 220.175781 111.878906 218.523438 C 109.726562 215.457031 109.386719 212.5625 109.421875 208.902344 C 109.421875 208.394531 109.421875 207.894531 109.414062 207.367188 C 109.410156 205.710938 109.414062 204.042969 109.433594 202.382812 C 109.433594 201.21875 109.433594 200.054688 109.421875 198.890625 C 109.421875 196.445312 109.433594 194.007812 109.441406 191.570312 C 109.460938 188.460938 109.460938 185.347656 109.453125 182.246094 C 109.441406 179.839844 109.453125 177.441406 109.460938 175.027344 C 109.460938 173.878906 109.460938 172.738281 109.460938 171.589844 C 109.453125 164.171875 109.441406 157.035156 113.070312 150.335938 C 113.503906 149.523438 113.503906 149.523438 113.941406 148.691406 C 114.269531 148.101562 114.269531 148.101562 114.601562 147.503906 C 114.957031 147.503906 115.324219 147.503906 115.695312 147.503906 C 115.832031 147.183594 115.964844 146.871094 116.097656 146.542969 C 119.164062 141.042969 126.273438 137.671875 132.023438 135.925781 C 140.273438 133.714844 150.066406 133.0625 158.203125 136.027344 Z M 158.203125 136.027344 "/>
<path style=" stroke:none;fill-rule:nonzero;fill:rgb(99.607843%,99.607843%,99.607843%);fill-opacity:1;" d="M 526.625 140.953125 C 527.160156 141.304688 527.707031 141.671875 528.257812 142.042969 C 528.257812 142.398438 528.257812 142.765625 528.257812 143.132812 C 528.625 143.132812 528.980469 143.132812 529.351562 143.132812 C 530.105469 144.023438 530.832031 144.929688 531.53125 145.867188 C 531.820312 145.542969 532.113281 145.230469 532.410156 144.902344 C 538.316406 138.699219 545.257812 135.253906 553.875 134.9375 C 554.296875 134.917969 554.714844 134.894531 555.152344 134.871094 C 563.726562 134.632812 573.167969 136.632812 580.035156 142.042969 C 580.035156 142.398438 580.035156 142.765625 580.035156 143.132812 C 580.546875 143.339844 580.546875 143.339844 581.058594 143.542969 C 582.402344 144.335938 582.730469 144.972656 583.304688 146.414062 C 583.660156 146.414062 584.027344 146.414062 584.398438 146.414062 C 591.589844 155.113281 591.019531 166.320312 591.03125 176.949219 C 591.03125 177.996094 591.03125 179.046875 591.03125 180.097656 C 591.039062 182.277344 591.039062 184.46875 591.039062 186.65625 C 591.039062 189.460938 591.042969 192.253906 591.054688 195.058594 C 591.058594 197.222656 591.058594 199.382812 591.058594 201.546875 C 591.058594 202.578125 591.066406 203.605469 591.066406 204.640625 C 591.074219 206.082031 591.074219 207.519531 591.066406 208.964844 C 591.074219 209.386719 591.074219 209.8125 591.074219 210.25 C 591.058594 213.574219 590.507812 215.894531 588.65625 218.65625 C 586.554688 220.71875 584.878906 221.261719 581.945312 221.246094 C 578.445312 221.007812 576.296875 220.371094 573.902344 217.699219 C 572.164062 215.210938 572.328125 212.867188 572.328125 209.933594 C 572.328125 209.445312 572.328125 208.964844 572.328125 208.460938 C 572.316406 207.402344 572.316406 206.347656 572.3125 205.28125 C 572.3125 203.605469 572.304688 201.921875 572.289062 200.25 C 572.261719 195.472656 572.242188 190.695312 572.230469 185.917969 C 572.222656 183 572.207031 180.078125 572.179688 177.160156 C 572.179688 176.046875 572.175781 174.941406 572.175781 173.828125 C 572.179688 167.472656 572.09375 162.460938 568.757812 156.890625 C 564.769531 153.109375 560.421875 152.210938 555.082031 152.265625 C 551.582031 152.574219 548.535156 153.667969 545.765625 155.832031 C 542.03125 160.683594 540.628906 164.90625 540.660156 171.027344 C 540.660156 171.503906 540.648438 171.980469 540.648438 172.464844 C 540.648438 173.480469 540.644531 174.507812 540.644531 175.53125 C 540.644531 177.144531 540.644531 178.769531 540.628906 180.386719 C 540.605469 184.988281 540.59375 189.589844 540.582031 194.1875 C 540.582031 197.007812 540.574219 199.835938 540.554688 202.652344 C 540.550781 203.722656 540.550781 204.796875 540.550781 205.871094 C 540.554688 207.367188 540.539062 208.871094 540.535156 210.367188 C 540.535156 211.023438 540.535156 211.023438 540.539062 211.699219 C 540.496094 214.753906 539.828125 216.550781 538.070312 219.070312 C 535.066406 221.027344 532.308594 221.460938 528.804688 220.980469 C 526.203125 220.410156 524.976562 219.382812 523.386719 217.296875 C 522.011719 215.011719 522.203125 212.71875 522.230469 210.144531 C 522.234375 209.445312 522.234375 209.445312 522.234375 208.738281 C 522.246094 207.730469 522.25 206.710938 522.257812 205.699219 C 522.273438 204.097656 522.277344 202.496094 522.289062 200.894531 C 522.300781 196.332031 522.324219 191.773438 522.359375 187.214844 C 522.382812 184.425781 522.386719 181.636719 522.398438 178.84375 C 522.402344 177.785156 522.410156 176.722656 522.421875 175.667969 C 522.671875 165.539062 522.671875 165.539062 518.347656 156.640625 C 514.566406 153.039062 510.457031 152.246094 505.421875 152.300781 C 501.140625 152.59375 497.503906 154.265625 494.472656 157.335938 C 491.921875 161.109375 491.664062 164.882812 491.652344 169.316406 C 491.644531 169.808594 491.644531 170.292969 491.636719 170.785156 C 491.632812 171.847656 491.632812 172.902344 491.621094 173.945312 C 491.617188 175.621094 491.597656 177.285156 491.589844 178.953125 C 491.550781 183.691406 491.511719 188.433594 491.484375 193.171875 C 491.46875 196.070312 491.445312 198.964844 491.417969 201.875 C 491.414062 202.976562 491.402344 204.078125 491.398438 205.1875 C 491.398438 206.726562 491.378906 208.277344 491.371094 209.816406 C 491.371094 210.277344 491.371094 210.722656 491.371094 211.199219 C 491.324219 214.332031 490.945312 216.402344 488.917969 218.898438 C 486.367188 221 484.035156 221.378906 480.808594 221.179688 C 478.34375 220.863281 476.757812 220.199219 474.851562 218.523438 C 473.070312 216.054688 472.605469 213.9375 472.59375 210.9375 C 472.59375 210.40625 472.59375 209.878906 472.59375 209.320312 C 472.59375 208.738281 472.59375 208.167969 472.59375 207.566406 C 472.59375 206.644531 472.59375 206.644531 472.59375 205.71875 C 472.59375 203.714844 472.59375 201.710938 472.605469 199.710938 C 472.605469 198.683594 472.605469 198.683594 472.605469 197.644531 C 472.617188 193.441406 472.632812 189.230469 472.660156 185.03125 C 472.671875 183.113281 472.675781 181.199219 472.683594 179.289062 C 472.691406 176.464844 472.714844 173.65625 472.757812 170.847656 C 472.765625 169.820312 472.769531 168.792969 472.78125 167.769531 C 472.808594 159.355469 473.835938 152.308594 479.753906 145.867188 C 480.054688 145.492188 480.347656 145.128906 480.667969 144.75 C 485.730469 138.960938 494.449219 135.742188 501.949219 135.007812 C 511.191406 134.5 518.886719 135.675781 526.625 140.953125 Z M 526.625 140.953125 "/>
<path style=" stroke:none;fill-rule:nonzero;fill:rgb(10.196079%,78.431374%,77.254903%);fill-opacity:1;" d="M 316.757812 142.820312 C 318.542969 144.265625 320.148438 145.816406 321.703125 147.503906 C 321.703125 147.859375 321.703125 148.226562 321.703125 148.59375 C 322.058594 148.59375 322.425781 148.59375 322.796875 148.59375 C 330.863281 157.640625 331.605469 169.128906 331.609375 180.589844 C 331.609375 181.46875 331.609375 182.34375 331.609375 183.21875 C 331.617188 185.054688 331.617188 186.878906 331.617188 188.707031 C 331.617188 191.046875 331.625 193.386719 331.632812 195.71875 C 331.636719 197.523438 331.636719 199.332031 331.636719 201.136719 C 331.636719 202.003906 331.648438 202.863281 331.648438 203.722656 C 331.699219 215.019531 331.699219 215.019531 328.792969 218.523438 C 325.679688 220.453125 322.933594 221.316406 319.269531 221.335938 C 318.734375 221.335938 318.734375 221.335938 318.191406 221.339844 C 317.011719 221.339844 315.832031 221.339844 314.652344 221.339844 C 313.835938 221.351562 313.015625 221.351562 312.183594 221.351562 C 310.453125 221.355469 308.730469 221.355469 306.996094 221.355469 C 304.796875 221.355469 302.597656 221.363281 300.402344 221.371094 C 298.691406 221.378906 296.980469 221.378906 295.285156 221.378906 C 294.46875 221.378906 293.660156 221.378906 292.855469 221.382812 C 281.199219 221.445312 270.261719 219.253906 261.207031 211.417969 C 261.207031 211.0625 261.207031 210.695312 261.207031 210.324219 C 260.894531 210.195312 260.578125 210.0625 260.25 209.925781 C 258.808594 209.117188 257.96875 208.195312 256.886719 206.945312 C 256.359375 206.347656 256.359375 206.347656 255.8125 205.734375 C 247.535156 195.515625 245.605469 183.328125 246.496094 170.449219 C 247.535156 161.265625 251.972656 153.316406 258.484375 146.957031 C 258.9375 146.5 259.378906 146.035156 259.84375 145.558594 C 265.703125 139.839844 272.855469 136.519531 280.828125 134.9375 C 281.324219 134.835938 281.816406 134.730469 282.324219 134.632812 C 294.695312 132.964844 306.773438 135.246094 316.757812 142.820312 Z M 273.746094 158.980469 C 273.746094 159.335938 273.746094 159.699219 273.746094 160.074219 C 273.390625 160.074219 273.023438 160.074219 272.652344 160.074219 C 267.371094 166.199219 265.929688 172.230469 266.503906 180.144531 C 266.863281 183.003906 267.972656 185.449219 269.382812 187.929688 C 269.699219 188.488281 269.699219 188.488281 270.011719 189.054688 C 270.601562 190.0625 270.601562 190.0625 271.566406 191.203125 C 271.921875 191.203125 272.28125 191.203125 272.652344 191.203125 C 272.855469 191.695312 272.855469 191.695312 273.0625 192.191406 C 274.910156 195.433594 279.046875 197.015625 282.472656 198.019531 C 282.828125 198.113281 283.183594 198.210938 283.554688 198.308594 C 284.007812 198.4375 284.453125 198.5625 284.914062 198.683594 C 291.679688 199.535156 298.324219 197.707031 303.808594 193.609375 C 308.183594 189.65625 311.066406 183.757812 311.480469 177.886719 C 311.617188 170.6875 309.890625 164.882812 304.890625 159.535156 C 300.515625 155.425781 295.234375 153.671875 289.269531 153.46875 C 283.4375 153.671875 278.566406 155.753906 273.746094 158.980469 Z M 273.746094 158.980469 "/>
<path style=" stroke:none;fill-rule:nonzero;fill:rgb(99.607843%,99.607843%,99.607843%);fill-opacity:1;" d="M 355.496094 135.484375 C 357.433594 136.441406 357.433594 136.441406 358.765625 137.664062 C 359.191406 138.054688 359.625 138.4375 360.054688 138.832031 C 360.945312 139.859375 360.945312 139.859375 360.945312 140.953125 C 361.300781 140.953125 361.667969 140.953125 362.03125 140.953125 C 362.820312 141.816406 363.5625 142.726562 364.28125 143.644531 C 366.28125 146.148438 368.339844 148.550781 370.515625 150.90625 C 371.300781 151.875 371.300781 151.875 371.300781 152.964844 C 371.664062 152.964844 372.019531 152.964844 372.390625 152.964844 C 373.183594 153.847656 373.9375 154.765625 374.667969 155.695312 C 377.027344 158.644531 377.027344 158.644531 379.4375 161.53125 C 379.738281 161.882812 380.03125 162.242188 380.339844 162.597656 C 381.058594 163.472656 381.058594 163.472656 382.199219 163.347656 C 383.015625 162.445312 383.789062 161.5 384.546875 160.542969 C 384.992188 159.996094 385.425781 159.449219 385.875 158.890625 C 386.578125 157.996094 387.285156 157.097656 387.996094 156.203125 C 388.589844 155.476562 389.207031 154.765625 389.828125 154.054688 C 390.195312 154.054688 390.550781 154.054688 390.921875 154.054688 C 391.042969 153.757812 391.171875 153.453125 391.304688 153.148438 C 392.195312 151.546875 393.3125 150.371094 394.570312 149.042969 C 396.710938 146.722656 398.675781 144.367188 400.527344 141.808594 C 400.773438 141.523438 401.019531 141.242188 401.273438 140.953125 C 401.628906 140.953125 401.996094 140.953125 402.367188 140.953125 C 402.488281 140.628906 402.613281 140.316406 402.746094 139.988281 C 404.015625 137.796875 406.058594 136.464844 408.359375 135.484375 C 412.070312 134.9375 415.089844 135.527344 418.171875 137.664062 C 419.804688 138.976562 420.277344 139.839844 420.550781 141.917969 C 420.726562 146.367188 419.75 148.433594 416.796875 151.800781 C 416.0625 152.578125 416.0625 152.578125 415.308594 153.371094 C 412.941406 155.90625 410.761719 158.519531 408.664062 161.285156 C 408.378906 161.609375 408.105469 161.925781 407.816406 162.253906 C 407.457031 162.253906 407.097656 162.253906 406.726562 162.253906 C 406.59375 162.558594 406.457031 162.867188 406.328125 163.175781 C 405.5 164.679688 404.507812 165.78125 403.355469 167.03125 C 402.699219 167.753906 402.699219 167.753906 402.023438 168.484375 C 401.601562 168.957031 401.171875 169.421875 400.730469 169.902344 C 398.359375 172.53125 396.191406 175.183594 394.191406 178.101562 C 394.550781 178.433594 394.90625 178.769531 395.277344 179.117188 C 396.371094 180.28125 396.371094 180.28125 396.371094 181.375 C 396.730469 181.375 397.09375 181.375 397.457031 181.375 C 398.21875 182.222656 398.941406 183.109375 399.640625 184.003906 C 401.910156 186.859375 404.300781 189.53125 406.796875 192.183594 C 407.816406 193.390625 407.816406 193.390625 407.816406 194.484375 C 408.171875 194.484375 408.53125 194.484375 408.902344 194.484375 C 411.628906 197.472656 411.628906 197.472656 411.628906 198.855469 C 411.996094 198.855469 412.351562 198.855469 412.722656 198.855469 C 413.53125 199.738281 414.289062 200.65625 415.035156 201.589844 C 415.691406 202.40625 415.691406 202.40625 416.351562 203.242188 C 422 210.460938 422 210.460938 421.441406 215.25 C 420.132812 218.027344 418.28125 219.585938 415.445312 220.710938 C 412.699219 221.507812 410.433594 221.378906 407.804688 220.230469 C 404.066406 218.113281 401.445312 214.792969 398.742188 211.523438 C 396.90625 209.296875 394.996094 207.171875 393.035156 205.066406 C 390.183594 202.015625 387.535156 198.847656 384.925781 195.578125 C 384.023438 194.484375 383.105469 193.390625 382.199219 192.296875 C 379.867188 193.167969 378.558594 194.941406 377.027344 196.808594 C 376.4375 197.5 375.855469 198.195312 375.277344 198.894531 C 374.976562 199.25 374.679688 199.605469 374.375 199.972656 C 372.972656 201.644531 371.5625 203.304688 370.140625 204.96875 C 369.871094 205.285156 369.601562 205.601562 369.324219 205.929688 C 367.167969 208.445312 364.953125 210.910156 362.710938 213.347656 C 361.589844 214.59375 360.515625 215.867188 359.449219 217.160156 C 357.523438 219.367188 355.65625 220.351562 352.835938 221.15625 C 349.585938 221.351562 347.191406 220.667969 344.660156 218.65625 C 343.035156 217.121094 342.242188 215.875 341.871094 213.605469 C 342.007812 210.953125 342.546875 209.226562 344.050781 207.050781 C 344.414062 206.511719 344.769531 205.972656 345.140625 205.410156 C 345.503906 205.410156 345.859375 205.410156 346.230469 205.410156 C 346.359375 205.105469 346.492188 204.796875 346.628906 204.480469 C 347.457031 202.976562 348.46875 201.878906 349.636719 200.632812 C 351.535156 198.566406 353.25 196.460938 354.847656 194.15625 C 355.167969 193.777344 355.167969 193.777344 355.496094 193.390625 C 355.851562 193.390625 356.21875 193.390625 356.582031 193.390625 C 356.703125 193.105469 356.816406 192.820312 356.941406 192.53125 C 357.980469 190.667969 359.339844 189.160156 360.742188 187.550781 C 361.035156 187.214844 361.324219 186.878906 361.625 186.53125 C 363.648438 184.179688 365.742188 181.894531 367.910156 179.664062 C 368.707031 178.679688 368.707031 178.679688 368.445312 177.492188 C 368 176.390625 367.503906 175.324219 366.941406 174.269531 C 366.578125 174.269531 366.222656 174.269531 365.851562 174.269531 C 365.160156 173.609375 365.160156 173.609375 364.316406 172.601562 C 363.976562 172.203125 363.636719 171.804688 363.292969 171.386719 C 362.878906 170.894531 362.464844 170.410156 362.03125 169.902344 C 361.214844 168.945312 360.394531 168 359.566406 167.054688 C 356.59375 163.625 353.632812 160.171875 350.691406 156.714844 C 349.132812 154.886719 347.546875 153.101562 345.921875 151.328125 C 343.871094 149.007812 342.574219 147.121094 342.175781 143.984375 C 342.554688 140.890625 343.738281 138.996094 346.027344 136.917969 C 348.964844 134.90625 352.023438 135.179688 355.496094 135.484375 Z M 355.496094 135.484375 "/>
<path style=" stroke:none;fill-rule:nonzero;fill:rgb(99.215686%,99.215686%,99.607843%);fill-opacity:1;" d="M 452.128906 135.871094 C 454.230469 137 455.289062 138.304688 456.320312 140.40625 C 456.527344 141.898438 456.527344 141.898438 456.527344 143.542969 C 456.539062 144.175781 456.546875 144.800781 456.546875 145.449219 C 456.546875 146.476562 456.546875 146.476562 456.539062 147.515625 C 456.546875 148.253906 456.546875 148.980469 456.550781 149.71875 C 456.5625 151.699219 456.5625 153.6875 456.5625 155.667969 C 456.550781 157.328125 456.5625 158.980469 456.5625 160.640625 C 456.566406 164.550781 456.566406 168.457031 456.5625 172.378906 C 456.5625 176.402344 456.566406 180.433594 456.582031 184.464844 C 456.589844 187.929688 456.59375 191.394531 456.589844 194.859375 C 456.589844 196.925781 456.589844 199 456.605469 201.066406 C 456.609375 203.003906 456.605469 204.953125 456.59375 206.898438 C 456.59375 207.953125 456.605469 209.003906 456.609375 210.050781 C 456.582031 213.714844 456.390625 216.121094 454.140625 219.070312 C 451.664062 220.804688 448.953125 221.335938 445.96875 221.253906 C 442.902344 220.636719 440.882812 219.316406 438.878906 216.886719 C 438.320312 215.195312 438.261719 214.035156 438.257812 212.269531 C 438.246094 211.660156 438.246094 211.042969 438.238281 210.40625 C 438.238281 209.730469 438.238281 209.046875 438.238281 208.351562 C 438.234375 207.640625 438.234375 206.925781 438.222656 206.191406 C 438.21875 203.824219 438.214844 201.449219 438.203125 199.085938 C 438.203125 198.265625 438.203125 197.453125 438.195312 196.636719 C 438.191406 192.804688 438.179688 188.980469 438.175781 185.140625 C 438.167969 180.71875 438.152344 176.300781 438.132812 171.878906 C 438.113281 168.464844 438.109375 165.042969 438.109375 161.628906 C 438.109375 159.589844 438.105469 157.542969 438.085938 155.507812 C 438.070312 153.230469 438.070312 150.949219 438.082031 148.667969 C 438.070312 147.996094 438.066406 147.332031 438.058594 146.628906 C 438.082031 142.972656 438.332031 140.644531 440.515625 137.664062 C 440.871094 137.664062 441.234375 137.664062 441.605469 137.664062 C 441.605469 137.3125 441.605469 136.945312 441.605469 136.574219 C 444.609375 134.746094 448.828125 134.839844 452.128906 135.871094 Z M 452.128906 135.871094 "/>
<path style=" stroke:none;fill-rule:nonzero;fill:rgb(99.607843%,99.607843%,99.607843%);fill-opacity:1;" d="M 478.492188 270.128906 C 482.679688 272.242188 485.570312 274.453125 487.40625 278.886719 C 488.085938 281.386719 488.105469 283.722656 488.109375 286.308594 C 488.121094 287.101562 488.121094 287.101562 488.125 287.910156 C 488.125 289.019531 488.132812 290.136719 488.132812 291.25 C 488.132812 292.945312 488.152344 294.632812 488.175781 296.324219 C 488.175781 297.417969 488.175781 298.503906 488.1875 299.585938 C 488.191406 300.089844 488.195312 300.59375 488.207031 301.101562 C 488.175781 304.742188 487.296875 307.566406 485.75 310.851562 C 485.394531 310.851562 485.03125 310.851562 484.660156 310.851562 C 484.304688 311.574219 483.941406 312.289062 483.570312 313.035156 C 483.214844 313.035156 482.851562 313.035156 482.480469 313.035156 C 482.480469 313.394531 482.480469 313.753906 482.480469 314.125 C 475.855469 317.816406 469.230469 318.175781 461.925781 316.382812 C 459.023438 315.378906 456.605469 313.75 454.140625 311.945312 C 454.570312 309.832031 455.464844 308.660156 456.867188 307.019531 C 458.722656 307.410156 460.265625 308.152344 461.972656 308.972656 C 466.207031 310.765625 471.078125 311.3125 475.460938 309.621094 C 477.617188 308.304688 478.84375 307.300781 479.890625 304.976562 C 480.382812 302.84375 480.371094 301.011719 480.300781 298.832031 C 479.949219 299.160156 479.601562 299.480469 479.246094 299.820312 C 475.050781 302.824219 470.515625 303.15625 465.496094 302.5 C 462.503906 301.882812 460.003906 300.402344 457.40625 298.832031 C 457.40625 298.472656 457.40625 298.109375 457.40625 297.738281 C 457.054688 297.738281 456.691406 297.738281 456.320312 297.738281 C 455.878906 296.863281 455.429688 295.984375 454.988281 295.109375 C 454.742188 294.621094 454.496094 294.128906 454.242188 293.632812 C 452.320312 289.605469 452.199219 283.144531 453.660156 278.859375 C 458.691406 269.621094 468.601562 265.714844 478.492188 270.128906 Z M 462.109375 278.3125 C 460.164062 281.382812 459.089844 284.886719 459.832031 288.53125 C 460.789062 291.386719 462.253906 294.039062 464.945312 295.570312 C 468.296875 296.988281 471.449219 297.125 474.914062 296.058594 C 477.339844 295.066406 478.875 293.355469 480.300781 291.183594 C 481.382812 287.914062 481.445312 283.570312 480.300781 280.289062 C 478.5625 277.628906 476.230469 275.796875 473.21875 274.796875 C 468.734375 274.304688 465.308594 275.019531 462.109375 278.3125 Z M 462.109375 278.3125 "/>
<path style=" stroke:none;fill-rule:nonzero;fill:rgb(99.215686%,99.607843%,99.607843%);fill-opacity:1;" d="M 282.121094 254.476562 C 282.554688 254.472656 282.984375 254.457031 283.433594 254.449219 C 284.644531 254.582031 284.644531 254.582031 286.277344 255.675781 C 286.511719 257.296875 286.511719 257.296875 286.558594 259.363281 C 286.566406 259.71875 286.578125 260.085938 286.585938 260.464844 C 286.621094 261.621094 286.632812 262.777344 286.65625 263.941406 C 286.671875 264.714844 286.695312 265.503906 286.710938 266.289062 C 286.757812 268.214844 286.796875 270.132812 286.824219 272.0625 C 287.128906 271.867188 287.425781 271.679688 287.742188 271.484375 C 288.328125 271.113281 288.328125 271.113281 288.9375 270.730469 C 289.332031 270.484375 289.722656 270.238281 290.125 269.980469 C 293.398438 267.972656 297.796875 268.402344 301.542969 268.777344 C 305.328125 269.757812 307.53125 271.722656 309.628906 274.972656 C 311.214844 278.640625 311.507812 282.40625 311.476562 286.351562 C 311.476562 286.800781 311.476562 287.253906 311.476562 287.71875 C 311.476562 288.664062 311.464844 289.609375 311.460938 290.554688 C 311.453125 292.015625 311.453125 293.464844 311.453125 294.917969 C 311.453125 295.839844 311.441406 296.761719 311.441406 297.683594 C 311.441406 298.121094 311.4375 298.558594 311.4375 299.007812 C 311.414062 302.039062 311.414062 302.039062 310.804688 302.652344 C 309.707031 302.695312 308.601562 302.703125 307.5 302.691406 C 306.894531 302.679688 306.296875 302.679688 305.675781 302.675781 C 305.210938 302.667969 304.742188 302.660156 304.265625 302.652344 C 303.355469 300.832031 303.644531 298.792969 303.640625 296.792969 C 303.632812 295.8125 303.628906 294.832031 303.613281 293.859375 C 303.59375 292.308594 303.585938 290.773438 303.585938 289.234375 C 303.585938 287.746094 303.5625 286.253906 303.539062 284.773438 C 303.546875 284.3125 303.546875 283.855469 303.550781 283.382812 C 303.484375 280.132812 302.789062 278.699219 300.449219 276.429688 C 298.023438 274.90625 295.050781 275.019531 292.273438 275.34375 C 290.6875 276.074219 290.6875 276.074219 289.550781 276.976562 C 289.183594 276.976562 288.828125 276.976562 288.457031 276.976562 C 287.195312 280.105469 286.730469 282.667969 286.671875 286.03125 C 286.667969 286.488281 286.648438 286.949219 286.644531 287.414062 C 286.601562 289.371094 286.5625 291.332031 286.523438 293.289062 C 286.496094 294.714844 286.457031 296.140625 286.429688 297.570312 C 286.425781 298.011719 286.414062 298.464844 286.410156 298.925781 C 286.339844 302.046875 286.339844 302.046875 285.734375 302.652344 C 284.738281 302.714844 283.734375 302.722656 282.734375 302.722656 C 282.1875 302.722656 281.640625 302.722656 281.085938 302.722656 C 279.742188 302.652344 279.742188 302.652344 279.195312 302.105469 C 279.136719 300.652344 279.121094 299.203125 279.121094 297.742188 C 279.121094 297.285156 279.121094 296.824219 279.121094 296.355469 C 279.121094 294.832031 279.121094 293.316406 279.121094 291.796875 C 279.121094 290.746094 279.121094 289.691406 279.121094 288.640625 C 279.121094 286.441406 279.121094 284.230469 279.121094 282.023438 C 279.128906 279.191406 279.121094 276.355469 279.121094 273.523438 C 279.121094 271.351562 279.121094 269.171875 279.121094 267 C 279.121094 265.957031 279.121094 264.914062 279.121094 263.863281 C 279.121094 262.410156 279.121094 260.957031 279.121094 259.488281 C 279.121094 259.054688 279.121094 258.617188 279.121094 258.171875 C 279.136719 254.5 279.136719 254.5 282.121094 254.476562 Z M 282.121094 254.476562 "/>
<path style=" stroke:none;fill-rule:nonzero;fill:rgb(99.215686%,99.215686%,99.215686%);fill-opacity:1;" d="M 230.433594 271.058594 C 232.484375 272.585938 233.835938 274.1875 235.050781 276.429688 C 235.230469 276.757812 235.414062 277.097656 235.601562 277.429688 C 237.121094 280.726562 236.957031 284.347656 236.683594 287.898438 C 236.140625 288.445312 236.140625 288.445312 235.097656 288.511719 C 234.652344 288.511719 234.191406 288.511719 233.726562 288.511719 C 233.210938 288.511719 232.703125 288.511719 232.171875 288.511719 C 231.613281 288.511719 231.058594 288.507812 230.484375 288.507812 C 229.910156 288.507812 229.34375 288.507812 228.765625 288.5 C 226.941406 288.5 225.117188 288.488281 223.296875 288.484375 C 222.0625 288.484375 220.835938 288.480469 219.601562 288.480469 C 216.574219 288.46875 213.550781 288.460938 210.523438 288.445312 C 210.769531 289.144531 211.015625 289.84375 211.265625 290.535156 C 211.476562 291.117188 211.476562 291.117188 211.6875 291.714844 C 212.742188 294.175781 214.539062 295.507812 216.925781 296.542969 C 221.144531 297.917969 224.449219 297.296875 228.476562 295.589844 C 229.679688 295.039062 229.679688 295.039062 230.691406 293.917969 C 232.476562 293.972656 233.035156 294.613281 234.367188 295.859375 C 234.980469 296.519531 234.980469 296.519531 235.597656 297.191406 C 234.324219 300.265625 231.597656 301.410156 228.714844 302.789062 C 223.292969 304.511719 217.40625 304.292969 212.15625 302.105469 C 208.4375 300.132812 205.425781 297.015625 204.046875 292.988281 C 203.828125 292.210938 203.628906 291.425781 203.441406 290.636719 C 203.316406 290.167969 203.191406 289.691406 203.058594 289.207031 C 202.464844 284.628906 203.300781 280.351562 205.484375 276.292969 C 211.820312 268.53125 221.34375 265.738281 230.433594 271.058594 Z M 212.703125 277.523438 C 211.375 279.269531 210.523438 280.742188 210.523438 282.984375 C 216.816406 282.984375 223.117188 282.984375 229.601562 282.984375 C 229.019531 278.917969 228.957031 278.507812 226.328125 275.882812 C 222.199219 273.226562 216.109375 274.160156 212.703125 277.523438 Z M 212.703125 277.523438 "/>
<path style=" stroke:none;fill-rule:nonzero;fill:rgb(99.215686%,99.215686%,99.215686%);fill-opacity:1;" d="M 383.738281 270.171875 C 387.875 272.953125 391.117188 276.636719 392.324219 281.535156 C 393.226562 287.210938 392.757812 292.417969 389.523438 297.230469 C 388.863281 298.023438 388.863281 298.023438 388.195312 298.832031 C 387.839844 298.832031 387.476562 298.832031 387.105469 298.832031 C 387.105469 299.191406 387.105469 299.546875 387.105469 299.917969 C 381.515625 303.320312 376.355469 304.71875 369.78125 303.449219 C 364.976562 302.128906 361.65625 299.601562 358.765625 295.550781 C 356.316406 290.617188 355.71875 285.226562 357.371094 279.949219 C 359.058594 275.78125 362.027344 272.175781 366.050781 270.113281 C 371.273438 268.046875 378.558594 267.628906 383.738281 270.171875 Z M 365.570312 279.027344 C 364.140625 281.382812 363.910156 283.65625 363.875 286.363281 C 363.867188 286.734375 363.855469 287.105469 363.855469 287.484375 C 363.957031 291.03125 365.472656 292.988281 367.890625 295.414062 C 370.808594 297.4375 373.234375 297.984375 376.75 297.5 C 379.742188 296.78125 381.894531 295.195312 383.832031 292.824219 C 385.589844 289.46875 385.269531 285.570312 384.925781 281.890625 C 384.367188 280.3125 383.785156 279.40625 382.746094 278.070312 C 382.390625 278.070312 382.023438 278.070312 381.652344 278.070312 C 381.652344 277.703125 381.652344 277.347656 381.652344 276.976562 C 375.964844 273.597656 369.984375 273.632812 365.570312 279.027344 Z M 365.570312 279.027344 "/>
<path style=" stroke:none;fill-rule:nonzero;fill:rgb(99.607843%,99.607843%,99.607843%);fill-opacity:1;" d="M 439.492188 270.378906 C 440.398438 270.902344 441.277344 271.484375 442.148438 272.0625 C 442.148438 272.417969 442.148438 272.785156 442.148438 273.15625 C 442.476562 273.292969 442.8125 273.433594 443.15625 273.570312 C 444.480469 274.335938 444.96875 274.960938 445.761719 276.253906 C 445.976562 276.617188 446.207031 276.964844 446.433594 277.328125 C 448.652344 281.90625 448.917969 287.320312 447.769531 292.246094 C 445.796875 297.625 442.8125 300.117188 437.738281 302.566406 C 433.183594 304.390625 427.667969 304.40625 423.074219 302.652344 C 419.585938 301.121094 417.035156 299.273438 414.898438 296.097656 C 414.675781 295.769531 414.445312 295.441406 414.21875 295.109375 C 411.761719 290.71875 411.984375 284.574219 413.082031 279.777344 C 413.578125 278.53125 414.136719 277.523438 414.898438 276.429688 C 415.164062 276.046875 415.429688 275.660156 415.699219 275.265625 C 421.179688 268.238281 431.617188 266.667969 439.492188 270.378906 Z M 422.179688 277.894531 C 419.488281 281.496094 419.5 285.136719 419.804688 289.542969 C 420.371094 292.386719 422.003906 294.230469 424.234375 295.972656 C 426.898438 297.714844 429.617188 298.007812 432.699219 297.558594 C 435.804688 296.667969 438.238281 294.917969 439.972656 292.199219 C 441.308594 288.347656 441.734375 284.804688 440.136719 280.941406 C 438.890625 278.414062 437.398438 276.636719 434.964844 275.167969 C 430.480469 274.0625 425.554688 274.425781 422.179688 277.894531 Z M 422.179688 277.894531 "/>
<path style=" stroke:none;fill-rule:nonzero;fill:rgb(99.607843%,99.607843%,99.607843%);fill-opacity:1;" d="M 492.292969 269.324219 C 493.226562 269.210938 494.171875 269.128906 495.117188 269.054688 C 495.902344 268.972656 495.902344 268.972656 496.710938 268.902344 C 498.535156 269.390625 498.710938 269.675781 499.699219 271.203125 C 501.085938 273.707031 502.257812 276.300781 503.394531 278.921875 C 503.816406 279.886719 504.246094 280.847656 504.667969 281.804688 C 504.875 282.273438 505.082031 282.746094 505.296875 283.230469 C 506.21875 285.300781 507.171875 287.351562 508.128906 289.40625 C 508.371094 289.933594 508.371094 289.933594 508.625 290.460938 C 508.988281 291.25 509.359375 292.039062 509.730469 292.824219 C 511.09375 291.453125 511.53125 290.167969 512.257812 288.371094 C 512.398438 288.03125 512.535156 287.695312 512.679688 287.347656 C 513.113281 286.269531 513.550781 285.191406 513.988281 284.117188 C 519.53125 270.421875 519.53125 270.421875 520.628906 269.324219 C 521.726562 269.292969 522.832031 269.28125 523.9375 269.296875 C 524.839844 269.300781 524.839844 269.300781 525.761719 269.3125 C 526.226562 269.320312 526.691406 269.324219 527.171875 269.324219 C 527.640625 270.652344 527.773438 271.332031 527.335938 272.679688 C 527.132812 273.105469 526.925781 273.523438 526.710938 273.949219 C 526.476562 274.414062 526.253906 274.890625 526.023438 275.371094 C 525.769531 275.863281 525.523438 276.359375 525.265625 276.878906 C 524.757812 277.917969 524.25 278.949219 523.742188 279.996094 C 523.484375 280.503906 523.238281 281.011719 522.976562 281.535156 C 520.886719 285.789062 518.839844 290.046875 517.195312 294.492188 C 515.921875 297.890625 514.480469 301.1875 513 304.496094 C 512.777344 305.007812 512.546875 305.523438 512.316406 306.054688 C 510.257812 310.601562 508.390625 314.144531 503.734375 316.3125 C 500.433594 317.351562 496.476562 317.367188 493.378906 315.765625 C 493.558594 313.964844 493.746094 312.164062 493.925781 310.304688 C 495.597656 309.742188 496.492188 309.78125 498.21875 309.890625 C 500.269531 309.90625 500.84375 309.875 502.582031 308.664062 C 504.644531 305.855469 504.644531 305.855469 505.917969 302.652344 C 505.269531 300.417969 504.394531 298.363281 503.378906 296.273438 C 503.09375 295.679688 502.804688 295.085938 502.515625 294.480469 C 502.210938 293.859375 501.902344 293.230469 501.59375 292.582031 C 501.113281 291.59375 500.640625 290.609375 500.160156 289.621094 C 498.765625 286.730469 497.355469 283.835938 495.925781 280.957031 C 495.640625 280.386719 495.363281 279.820312 495.070312 279.234375 C 494.542969 278.15625 494.011719 277.085938 493.464844 276.015625 C 493.238281 275.539062 492.996094 275.058594 492.757812 274.5625 C 492.542969 274.140625 492.335938 273.726562 492.125 273.289062 C 491.660156 271.789062 491.878906 270.828125 492.292969 269.324219 Z M 492.292969 269.324219 "/>
<path style=" stroke:none;fill-rule:nonzero;fill:rgb(99.215686%,99.215686%,99.215686%);fill-opacity:1;" d="M 174.691406 255.058594 C 175.050781 255.058594 175.398438 255.058594 175.765625 255.058594 C 176.945312 255.046875 178.128906 255.046875 179.304688 255.058594 C 180.117188 255.058594 180.941406 255.058594 181.757812 255.058594 C 183.472656 255.046875 185.1875 255.058594 186.894531 255.058594 C 189.097656 255.058594 191.296875 255.058594 193.496094 255.058594 C 195.183594 255.046875 196.871094 255.046875 198.566406 255.058594 C 199.367188 255.058594 200.179688 255.058594 200.996094 255.046875 C 202.132812 255.046875 203.265625 255.058594 204.390625 255.058594 C 205.363281 255.058594 205.363281 255.058594 206.351562 255.058594 C 207.800781 255.128906 207.800781 255.128906 208.34375 255.675781 C 208.34375 257.652344 208.34375 259.632812 208.34375 261.683594 C 203.3125 261.683594 198.269531 261.683594 193.082031 261.683594 C 193.082031 262.90625 193.09375 264.125 193.09375 265.386719 C 193.097656 269.410156 193.105469 273.441406 193.113281 277.46875 C 193.113281 279.90625 193.121094 282.351562 193.125 284.792969 C 193.125 287.148438 193.136719 289.5 193.136719 291.863281 C 193.136719 292.765625 193.140625 293.660156 193.140625 294.5625 C 193.140625 295.820312 193.148438 297.078125 193.148438 298.335938 C 193.148438 299.050781 193.148438 299.765625 193.148438 300.503906 C 193.082031 302.105469 193.082031 302.105469 192.542969 302.652344 C 191.445312 302.695312 190.335938 302.703125 189.230469 302.691406 C 188.632812 302.679688 188.035156 302.679688 187.410156 302.675781 C 186.945312 302.667969 186.480469 302.660156 186 302.652344 C 185.191406 301.035156 185.386719 299.585938 185.386719 297.769531 C 185.386719 297.390625 185.386719 296.996094 185.386719 296.597656 C 185.398438 295.304688 185.398438 294.015625 185.402344 292.726562 C 185.402344 291.839844 185.402344 290.945312 185.402344 290.058594 C 185.402344 287.703125 185.410156 285.351562 185.421875 283 C 185.425781 280.597656 185.425781 278.203125 185.425781 275.808594 C 185.429688 271.09375 185.441406 266.394531 185.453125 261.683594 C 180.597656 261.683594 175.742188 261.683594 170.742188 261.683594 C 170.742188 255.058594 170.742188 255.058594 174.691406 255.058594 Z M 174.691406 255.058594 "/>
<path style=" stroke:none;fill-rule:nonzero;fill:rgb(99.607843%,99.607843%,99.607843%);fill-opacity:1;" d="M 346.773438 272.0625 C 350.320312 275.523438 351.121094 279.332031 351.210938 284.171875 C 351.210938 285.007812 351.210938 285.839844 351.210938 286.667969 C 351.210938 287.113281 351.210938 287.550781 351.210938 288.007812 C 351.210938 288.933594 351.210938 289.863281 351.210938 290.789062 C 351.199219 292.210938 351.210938 293.640625 351.210938 295.058594 C 351.210938 295.960938 351.210938 296.863281 351.210938 297.765625 C 351.210938 298.199219 351.210938 298.617188 351.210938 299.0625 C 351.199219 302.046875 351.199219 302.046875 350.59375 302.652344 C 349.496094 302.695312 348.386719 302.703125 347.28125 302.691406 C 346.382812 302.679688 346.382812 302.679688 345.457031 302.675781 C 344.996094 302.667969 344.53125 302.660156 344.050781 302.652344 C 344.042969 302.046875 344.042969 301.445312 344.035156 300.816406 C 344.011719 298.554688 343.980469 296.289062 343.933594 294.019531 C 343.917969 293.046875 343.914062 292.074219 343.902344 291.097656 C 343.890625 289.6875 343.871094 288.269531 343.835938 286.859375 C 343.835938 286.429688 343.835938 286.003906 343.832031 285.554688 C 343.738281 281.769531 342.65625 278.832031 339.933594 276.15625 C 336.972656 274.867188 333.984375 274.753906 330.882812 275.699219 C 328.730469 276.757812 327.804688 278.054688 326.933594 280.242188 C 326.355469 282.21875 326.355469 284.1875 326.34375 286.242188 C 326.339844 286.925781 326.339844 286.925781 326.328125 287.613281 C 326.296875 289.058594 326.285156 290.488281 326.269531 291.933594 C 326.246094 293.382812 326.226562 294.832031 326.203125 296.277344 C 326.1875 297.175781 326.175781 298.078125 326.164062 298.972656 C 326.121094 302.046875 326.121094 302.046875 325.519531 302.652344 C 324.429688 302.714844 323.34375 302.722656 322.25 302.722656 C 321.65625 302.722656 321.058594 302.722656 320.449219 302.722656 C 318.980469 302.652344 318.980469 302.652344 318.433594 302.105469 C 318.367188 300.585938 318.335938 299.074219 318.324219 297.546875 C 318.316406 297.082031 318.316406 296.625 318.3125 296.148438 C 318.3125 295.167969 318.300781 294.183594 318.300781 293.203125 C 318.296875 291.714844 318.28125 290.222656 318.269531 288.730469 C 318.257812 287.777344 318.257812 286.820312 318.253906 285.871094 C 318.246094 285.421875 318.246094 284.984375 318.234375 284.53125 C 318.253906 280.277344 319.433594 276.425781 322.25 273.15625 C 323.429688 272.484375 324.605469 271.976562 325.859375 271.484375 C 327.105469 270.984375 328.230469 270.410156 329.398438 269.773438 C 334.910156 267.039062 342.117188 268.027344 346.773438 272.0625 Z M 346.773438 272.0625 "/>
<path style=" stroke:none;fill-rule:nonzero;fill:rgb(99.607843%,99.607843%,99.607843%);fill-opacity:1;" d="M 270.476562 271.515625 C 271.21875 272.042969 271.945312 272.585938 272.652344 273.15625 C 272.429688 275.789062 271.308594 276.882812 269.382812 278.617188 C 267.421875 277.890625 265.722656 276.972656 263.933594 275.882812 C 261.066406 274.925781 257.839844 274.714844 255 275.871094 C 251.980469 277.699219 250.375 279.632812 249.222656 282.984375 C 248.746094 286.859375 248.695312 290.390625 251.097656 293.59375 C 253.421875 295.972656 256.015625 297.035156 259.3125 297.285156 C 262.742188 297.042969 265.898438 295.8125 268.296875 293.371094 C 269.488281 293.535156 269.488281 293.535156 270.476562 293.917969 C 270.476562 294.273438 270.476562 294.632812 270.476562 295.003906 C 270.828125 295.003906 271.195312 295.003906 271.566406 295.003906 C 271.566406 295.367188 271.566406 295.726562 271.566406 296.097656 C 271.921875 296.097656 272.28125 296.097656 272.652344 296.097656 C 272.539062 298.164062 272.152344 298.789062 270.644531 300.265625 C 266.0625 303.746094 261.355469 304.144531 255.757812 303.746094 C 250.765625 302.789062 247.496094 300.585938 244.105469 296.859375 C 240.984375 292.234375 240.855469 286.734375 241.59375 281.34375 C 243.089844 276.300781 245.972656 272.960938 250.382812 270.253906 C 256.703125 267.144531 264.523438 268.09375 270.476562 271.515625 Z M 270.476562 271.515625 "/>
<path style=" stroke:none;fill-rule:nonzero;fill:rgb(98.823529%,98.823529%,98.823529%);fill-opacity:1;" d="M 455.230469 106.527344 C 458.34375 109.105469 458.761719 112.800781 459.203125 116.660156 C 459.335938 120.140625 458.441406 122.742188 456.21875 125.476562 C 452.980469 128.148438 450.125 129.390625 445.863281 129.199219 C 442.570312 128.613281 440.042969 127.089844 437.933594 124.488281 C 435.75 120.753906 435.53125 116.769531 436.152344 112.535156 C 437.277344 109.433594 439.207031 107.484375 442.148438 105.988281 C 446.523438 104.398438 451.078125 104.191406 455.230469 106.527344 Z M 455.230469 106.527344 "/>
<path style=" stroke:none;fill-rule:nonzero;fill:rgb(99.607843%,99.607843%,99.607843%);fill-opacity:1;" d="M 400.730469 254.511719 C 401.164062 254.511719 401.609375 254.511719 402.0625 254.511719 C 402.710938 254.511719 402.710938 254.511719 403.382812 254.511719 C 404.546875 254.582031 404.546875 254.582031 405.632812 255.128906 C 405.632812 270.8125 405.632812 286.496094 405.632812 302.652344 C 403.476562 302.652344 401.320312 302.652344 399.097656 302.652344 C 399.078125 296.464844 399.074219 290.28125 399.0625 284.09375 C 399.0625 281.21875 399.058594 278.347656 399.050781 275.472656 C 399.050781 272.703125 399.042969 269.929688 399.042969 267.164062 C 399.042969 266.097656 399.035156 265.042969 399.035156 263.984375 C 399.035156 262.503906 399.03125 261.027344 399.03125 259.542969 C 399.03125 259.113281 399.03125 258.664062 399.03125 258.207031 C 399.035156 254.621094 399.035156 254.621094 400.730469 254.511719 Z M 400.730469 254.511719 "/>
<path style=" stroke:none;fill-rule:nonzero;fill:rgb(0.784314%,80.000001%,77.254903%);fill-opacity:1;" d="M 274.292969 217.433594 C 275.160156 217.601562 276.039062 217.765625 276.914062 217.941406 C 277.398438 218.039062 277.886719 218.132812 278.386719 218.234375 C 279.742188 218.523438 279.742188 218.523438 281.375 219.070312 C 282.625 219.121094 283.875 219.152344 285.125 219.160156 C 285.699219 219.160156 285.699219 219.160156 286.277344 219.164062 C 287.101562 219.175781 287.921875 219.175781 288.753906 219.179688 C 290.050781 219.1875 291.351562 219.199219 292.664062 219.207031 C 296.363281 219.242188 300.074219 219.269531 303.777344 219.289062 C 306.046875 219.296875 308.3125 219.316406 310.578125 219.339844 C 311.4375 219.34375 312.300781 219.355469 313.167969 219.355469 C 314.375 219.359375 315.585938 219.367188 316.792969 219.386719 C 317.476562 219.386719 318.164062 219.398438 318.871094 219.398438 C 320.710938 219.625 321.464844 219.996094 322.796875 221.253906 C 318.011719 221.273438 313.234375 221.296875 308.449219 221.3125 C 306.234375 221.3125 304.011719 221.316406 301.792969 221.335938 C 299.640625 221.351562 297.488281 221.355469 295.347656 221.355469 C 294.535156 221.355469 293.710938 221.363281 292.898438 221.371094 C 286.289062 221.417969 279.894531 221.179688 273.746094 218.523438 C 273.925781 218.160156 274.101562 217.804688 274.292969 217.433594 Z M 274.292969 217.433594 "/>
<path style=" stroke:none;fill-rule:nonzero;fill:rgb(34.901962%,34.901962%,34.901962%);fill-opacity:1;" d="M 456.523438 107.449219 C 457.789062 109.246094 458.070312 110.933594 458.5 113.082031 C 456.675781 112.765625 455.726562 112.160156 454.382812 110.902344 C 451.828125 108.535156 449.429688 108.46875 446.042969 108.480469 C 442.417969 108.972656 439.617188 111.492188 437.246094 114.175781 C 436.835938 113.019531 436.835938 113.019531 436.699219 111.449219 C 438.175781 108.539062 440.101562 106.738281 443.175781 105.605469 C 447.972656 104.253906 452.382812 104.5 456.523438 107.449219 Z M 456.523438 107.449219 "/>
<path style=" stroke:none;fill-rule:nonzero;fill:rgb(0.784314%,88.627452%,85.09804%);fill-opacity:1;" d="M 302.082031 219.617188 C 304.6875 219.574219 307.28125 219.542969 309.882812 219.519531 C 310.769531 219.515625 311.648438 219.507812 312.535156 219.492188 C 313.808594 219.46875 315.078125 219.464844 316.347656 219.453125 C 316.738281 219.449219 317.132812 219.433594 317.542969 219.425781 C 320.082031 219.425781 320.644531 219.640625 322.796875 221.253906 C 315.785156 221.253906 308.761719 221.253906 301.542969 221.253906 C 301.722656 220.71875 301.902344 220.171875 302.082031 219.617188 Z M 302.082031 219.617188 "/>
<path style=" stroke:none;fill-rule:nonzero;fill:rgb(37.64706%,37.254903%,37.254903%);fill-opacity:1;" d="M 451.957031 105.441406 C 454.394531 105.890625 455.945312 106.714844 457.40625 108.714844 C 457.898438 110.164062 458.199219 111.582031 458.5 113.082031 C 456.699219 112.773438 455.945312 112.269531 454.722656 110.933594 C 452.101562 108.523438 448.835938 108.46875 445.421875 108.167969 C 445.421875 107.988281 445.421875 107.808594 445.421875 107.621094 C 446.097656 107.566406 446.769531 107.507812 447.464844 107.449219 C 449.058594 107.265625 449.648438 107.179688 450.9375 106.152344 C 451.277344 105.921875 451.613281 105.683594 451.957031 105.441406 Z M 451.957031 105.441406 "/>
<path style=" stroke:none;fill-rule:nonzero;fill:rgb(11.764706%,85.882354%,82.352942%);fill-opacity:1;" d="M 289.207031 152.316406 C 289.914062 152.308594 290.609375 152.300781 291.335938 152.292969 C 293.300781 152.417969 294.808594 152.796875 296.632812 153.511719 C 294.753906 154.6875 293.5 154.65625 291.324219 154.398438 C 288.707031 154.128906 286.1875 154.003906 283.554688 154.054688 C 283.375 153.699219 283.199219 153.339844 283.007812 152.964844 C 285.070312 152.308594 287.058594 152.332031 289.207031 152.316406 Z M 289.207031 152.316406 "/>
<path style=" stroke:none;fill-rule:nonzero;fill:rgb(4.705882%,83.92157%,81.960785%);fill-opacity:1;" d="M 266.117188 181.375 C 266.472656 181.375 266.832031 181.375 267.203125 181.375 C 267.378906 181.816406 267.558594 182.273438 267.746094 182.730469 C 267.984375 183.320312 268.21875 183.910156 268.460938 184.511719 C 268.699219 185.097656 268.933594 185.675781 269.175781 186.285156 C 269.851562 187.75 270.589844 188.847656 271.566406 190.117188 C 271.566406 190.476562 271.566406 190.832031 271.566406 191.203125 C 271.921875 191.203125 272.28125 191.203125 272.652344 191.203125 C 273.414062 192.09375 274.140625 193.003906 274.832031 193.9375 C 272.652344 193.9375 272.652344 193.9375 271.566406 192.894531 C 265.636719 185.191406 265.636719 185.191406 266.117188 181.375 Z M 266.117188 181.375 "/>
<path style=" stroke:none;fill-rule:nonzero;fill:rgb(2.352941%,82.352942%,78.823531%);fill-opacity:1;" d="M 329.878906 211.964844 C 330.246094 212.144531 330.601562 212.324219 330.972656 212.511719 C 330.691406 214.910156 330.320312 216.632812 328.792969 218.523438 C 326.710938 220.011719 324.839844 220.941406 322.25 220.570312 C 321.714844 220.4375 321.175781 220.300781 320.617188 220.164062 C 320.617188 219.980469 320.617188 219.796875 320.617188 219.617188 C 321.277344 219.542969 321.945312 219.476562 322.625 219.410156 C 324.472656 219.164062 326.074219 218.941406 327.699219 217.976562 C 328.40625 216.742188 328.40625 216.742188 328.792969 215.25 C 328.996094 214.648438 329.195312 214.054688 329.398438 213.4375 C 329.5625 212.949219 329.71875 212.46875 329.878906 211.964844 Z M 329.878906 211.964844 "/>
<path style=" stroke:none;fill-rule:nonzero;fill:rgb(31.764707%,31.764707%,31.764707%);fill-opacity:1;" d="M 446.507812 104.894531 C 449.8125 104.785156 449.8125 104.785156 450.871094 104.894531 C 451.230469 105.25 451.59375 105.617188 451.957031 105.988281 C 450.941406 107.316406 450.417969 107.601562 448.734375 107.902344 C 447.855469 107.949219 447.855469 107.949219 446.957031 107.996094 C 446.355469 108.03125 445.769531 108.070312 445.160156 108.105469 C 444.476562 108.140625 444.476562 108.140625 443.78125 108.167969 C 443.78125 107.632812 443.78125 107.085938 443.78125 106.527344 C 444.683594 106.347656 445.578125 106.167969 446.507812 105.988281 C 446.507812 105.621094 446.507812 105.265625 446.507812 104.894531 Z M 446.507812 104.894531 "/>
<path style=" stroke:none;fill-rule:nonzero;fill:rgb(7.843138%,81.568629%,79.607844%);fill-opacity:1;" d="M 329.878906 167.714844 C 330.058594 167.714844 330.246094 167.714844 330.425781 167.714844 C 331.386719 170.5625 331.609375 172.769531 331.375 175.804688 C 331.332031 176.519531 331.28125 177.230469 331.234375 177.96875 C 330.972656 179.734375 330.972656 179.734375 329.878906 180.828125 C 329.878906 176.5 329.878906 172.167969 329.878906 167.714844 Z M 329.878906 167.714844 "/>
<path style=" stroke:none;fill-rule:nonzero;fill:rgb(0.392157%,86.274511%,82.352942%);fill-opacity:1;" d="M 284.101562 219.617188 C 286.976562 219.617188 289.855469 219.617188 292.820312 219.617188 C 292.640625 219.972656 292.453125 220.339844 292.273438 220.710938 C 289.9375 221.421875 287.609375 221.417969 285.191406 221.253906 C 284.824219 220.71875 284.472656 220.171875 284.101562 219.617188 Z M 284.101562 219.617188 "/>
<path style=" stroke:none;fill-rule:nonzero;fill:rgb(3.137255%,80.392158%,79.215688%);fill-opacity:1;" d="M 295.546875 197.761719 C 295.367188 198.304688 295.191406 198.847656 295 199.402344 C 294.34375 199.382812 294.34375 199.382812 293.667969 199.363281 C 292.3125 199.238281 292.3125 199.238281 291.730469 199.949219 C 290.902344 199.988281 290.074219 199.992188 289.242188 199.976562 C 288.796875 199.976562 288.34375 199.972656 287.878906 199.964844 C 287.527344 199.957031 287.179688 199.957031 286.824219 199.949219 C 287.003906 199.582031 287.179688 199.230469 287.371094 198.855469 C 288.796875 198.507812 288.796875 198.507812 290.578125 198.238281 C 291.15625 198.152344 291.738281 198.058594 292.339844 197.960938 C 293.90625 197.761719 293.90625 197.761719 295.546875 197.761719 Z M 295.546875 197.761719 "/>
<path style=" stroke:none;fill-rule:nonzero;fill:rgb(92.941177%,92.941177%,92.54902%);fill-opacity:1;" d="M 456.320312 112.535156 C 457.042969 112.722656 457.757812 112.902344 458.5 113.082031 C 458.960938 114.683594 459.132812 116.132812 459.144531 117.796875 C 459.15625 118.214844 459.160156 118.648438 459.167969 119.085938 C 459.046875 120.183594 459.046875 120.183594 457.953125 121.28125 C 457.910156 120.683594 457.910156 120.683594 457.878906 120.058594 C 457.835938 119.527344 457.796875 119 457.753906 118.445312 C 457.714844 117.921875 457.671875 117.398438 457.636719 116.851562 C 457.40625 115.265625 456.976562 113.996094 456.320312 112.535156 Z M 456.320312 112.535156 "/>
<path style=" stroke:none;fill-rule:nonzero;fill:rgb(2.352941%,79.215688%,78.431374%);fill-opacity:1;" d="M 261.753906 209.777344 C 262.109375 209.964844 262.472656 210.144531 262.847656 210.324219 C 262.847656 210.691406 262.847656 211.046875 262.847656 211.417969 C 264.101562 211.785156 265.367188 212.140625 266.65625 212.511719 C 266.476562 213.234375 266.296875 213.949219 266.117188 214.703125 C 264.480469 213.605469 262.847656 212.511719 261.207031 211.417969 C 261.394531 210.878906 261.574219 210.339844 261.753906 209.777344 Z M 261.753906 209.777344 "/>
<path style=" stroke:none;fill-rule:nonzero;fill:rgb(47.450981%,47.058824%,47.058824%);fill-opacity:1;" d="M 455.773438 107.621094 C 458.085938 109.167969 457.941406 110.421875 458.5 113.082031 C 457.445312 112.917969 457.445312 112.917969 456.320312 112.535156 C 455.738281 110.792969 455.730469 109.453125 455.773438 107.621094 Z M 455.773438 107.621094 "/>
<path style=" stroke:none;fill-rule:nonzero;fill:rgb(3.529412%,80.392158%,78.039217%);fill-opacity:1;" d="M 268.84375 187.382812 C 269.769531 188.273438 270.675781 189.179688 271.566406 190.117188 C 271.566406 190.476562 271.566406 190.832031 271.566406 191.203125 C 271.921875 191.203125 272.28125 191.203125 272.652344 191.203125 C 273.414062 192.09375 274.140625 193.003906 274.832031 193.9375 C 272.652344 193.9375 272.652344 193.9375 271.609375 192.925781 C 271.28125 192.476562 270.945312 192.035156 270.609375 191.585938 C 270.277344 191.148438 269.945312 190.710938 269.59375 190.257812 C 268.84375 189.023438 268.84375 189.023438 268.84375 187.382812 Z M 268.84375 187.382812 "/>
<path style=" stroke:none;fill-rule:nonzero;fill:rgb(7.450981%,81.176472%,81.960785%);fill-opacity:1;" d="M 311.894531 175.363281 C 312.078125 175.363281 312.25 175.363281 312.441406 175.363281 C 312.46875 176.328125 312.492188 177.296875 312.507812 178.265625 C 312.519531 178.804688 312.535156 179.339844 312.550781 179.898438 C 312.441406 181.375 312.441406 181.375 311.351562 183.015625 C 310.984375 182.835938 310.628906 182.648438 310.257812 182.46875 C 310.796875 180.125 311.332031 177.777344 311.894531 175.363281 Z M 311.894531 175.363281 "/>
<path style=" stroke:none;fill-rule:nonzero;fill:rgb(40.000001%,39.607844%,39.607844%);fill-opacity:1;" d="M 453.597656 106.527344 C 454.675781 106.800781 454.675781 106.800781 455.773438 107.074219 C 455.957031 108.519531 456.128906 109.960938 456.320312 111.449219 C 454.976562 110.820312 454.109375 110.324219 453.050781 109.261719 C 453.417969 109.261719 453.769531 109.261719 454.140625 109.261719 C 453.957031 108.359375 453.777344 107.457031 453.597656 106.527344 Z M 453.597656 106.527344 "/>
<path style=" stroke:none;fill-rule:nonzero;fill:rgb(9.411765%,83.92157%,83.92157%);fill-opacity:1;" d="M 287.917969 134.9375 C 287.730469 135.300781 287.554688 135.652344 287.371094 136.027344 C 285.214844 135.851562 283.050781 135.671875 280.828125 135.484375 C 280.828125 135.308594 280.828125 135.125 280.828125 134.9375 C 283.351562 134.378906 285.378906 134.480469 287.917969 134.9375 Z M 287.917969 134.9375 "/>
<path style=" stroke:none;fill-rule:nonzero;fill:rgb(0.784314%,79.607844%,74.509805%);fill-opacity:1;" d="M 329.878906 211.964844 C 330.246094 212.144531 330.601562 212.324219 330.972656 212.511719 C 330.492188 215.65625 330.492188 215.65625 329.878906 216.886719 C 329.519531 216.886719 329.15625 216.886719 328.792969 216.886719 C 329.152344 215.261719 329.507812 213.636719 329.878906 211.964844 Z M 329.878906 211.964844 "/>
<path style=" stroke:none;fill-rule:nonzero;fill:rgb(11.764706%,83.92157%,83.529413%);fill-opacity:1;" d="M 306.445312 160.074219 C 307.347656 160.792969 308.238281 161.511719 309.171875 162.253906 C 308.992188 162.976562 308.804688 163.695312 308.625 164.441406 C 306.445312 161.914062 306.445312 161.914062 306.445312 160.074219 Z M 306.445312 160.074219 "/>
<path style=" stroke:none;fill-rule:nonzero;fill:rgb(72.941178%,72.941178%,72.941178%);fill-opacity:1;" d="M 436.152344 112.535156 C 436.507812 112.535156 436.875 112.535156 437.246094 112.535156 C 437.78125 114.203125 437.78125 115.242188 437.246094 116.910156 C 436.890625 116.910156 436.527344 116.910156 436.152344 116.910156 C 436.152344 115.46875 436.152344 114.023438 436.152344 112.535156 Z M 436.152344 112.535156 "/>
<path style=" stroke:none;fill-rule:nonzero;fill:rgb(46.27451%,46.666667%,46.666667%);fill-opacity:1;" d="M 437.792969 109.808594 C 438.398438 110.761719 438.398438 110.761719 438.878906 111.988281 C 438.398438 113.226562 438.398438 113.226562 437.792969 114.175781 C 437.425781 113.640625 437.070312 113.101562 436.699219 112.535156 C 437.179688 111.066406 437.179688 111.066406 437.792969 109.808594 Z M 437.792969 109.808594 "/>
<path style=" stroke:none;fill-rule:nonzero;fill:rgb(29.411766%,29.411766%,29.411766%);fill-opacity:1;" d="M 446.507812 105.988281 C 446.507812 106.34375 446.507812 106.703125 446.507812 107.074219 C 447.046875 107.261719 447.582031 107.4375 448.144531 107.621094 C 446.703125 107.808594 445.269531 107.984375 443.78125 108.167969 C 443.78125 107.632812 443.78125 107.085938 443.78125 106.527344 C 445.421875 105.988281 445.421875 105.988281 446.507812 105.988281 Z M 446.507812 105.988281 "/>
</g>
</svg>
